Coordinates
version=1
nRows=12
nColumns=42
inDegrees=yes

Units are S.I. units (second, meters, Newtons, ...)
If the header above contains a line with 'inDegrees', this indicates whether rotational values are in degrees (yes) or radians (no).

endheader
time	pelvis_tilt	pelvis_list	pelvis_rotation	pelvis_tx	pelvis_ty	pelvis_tz	hip_flexion_r	hip_adduction_r	hip_rotation_r	knee_angle_r	knee_adduction_r	knee_angle_r_beta	ankle_angle_r	subtalar_angle_r	mtp_angle_r	hip_flexion_l	hip_adduction_l	hip_rotation_l	knee_angle_l	knee_adduction_l	knee_angle_l_beta	ankle_angle_l	subtalar_angle_l	mtp_angle_l	lumbar_extension	lumbar_bending	lumbar_rotation	arm_flex_r	arm_add_r	arm_rot_r	elbow_flex_r	pro_sup_r	wrist_flex_r	wrist_dev_r	arm_flex_l	arm_add_l	arm_rot_l	elbow_flex_l	pro_sup_l	wrist_flex_l	wrist_dev_l
      4.97000000	      4.72779259	      4.04676542	      1.28379863	      0.47473017	      0.85975182	     -0.18595586	     17.94155906	     -9.50113659	     -2.63882750	     73.90951280	     -1.06160404	      1.28996435	      4.74296926	     -0.11709322	     -7.50038734	     15.99202460	      8.70904611	    -13.82613475	     38.71261499	     -7.60984522	      0.67566259	     19.23340131	     13.85772630	     -7.50038734	    -24.81472502	     -1.24721292	     -5.56263963	      1.92606996	    -10.89010206	    -16.48693069	     42.24125373	     90.00000001	      0.00000000	      0.00000000	     17.07414863	    -12.90136006	     31.71700687	     49.68842001	     90.00000001	      0.00000000	      0.00000000
      4.98000000	      4.69291896	      4.13616955	      1.39351929	      0.47787978	      0.85946006	     -0.18636911	     19.23238546	     -9.63789051	     -3.30563918	     73.98656930	     -2.05430492	      1.29130924	      5.57114463	     -0.82042437	     -7.50038018	     15.80902460	      8.81736850	    -13.79031820	     38.76637647	     -7.57636002	      0.67660091	     19.51198246	     14.00840598	     -7.50038018	    -24.91507512	     -1.27650185	     -5.63177000	      1.71570420	    -10.94921544	    -16.46391863	     42.39216466	     90.00000001	      0.00000000	      0.00000000	     17.17216055	    -12.87448701	     31.66963743	     49.55824684	     90.00000001	      0.00000000	      0.00000000
      4.99000000	      4.67261166	      4.19865240	      1.55562892	      0.48106899	      0.85924937	     -0.18687351	     20.43655576	     -9.80250430	     -4.39428679	     73.79055184	     -3.32317416	      1.28788809	      6.38712458	     -1.31328532	     -7.50037191	     15.60993579	      8.91329393	    -13.69550567	     38.82798351	     -7.55671049	      0.67767615	     19.78252497	     14.18263576	     -7.50037191	    -25.00263675	     -1.20455721	     -5.74999311	      1.50430096	    -11.02228036	    -16.42143464	     42.57818049	     90.00000001	      0.00000000	      0.00000000	     17.26678445	    -12.85344534	     31.59095479	     49.38786659	     90.00000001	      0.00000000	      0.00000000
      5.00000000	      4.68038494	      4.28149978	      1.73605604	      0.48433288	      0.85913942	     -0.18739297	     21.55853572	    -10.01263617	     -5.84316395	     73.32321328	     -4.88521533	      1.27973149	      7.14865453	     -1.46081678	     -7.50036238	     15.33434722	      9.02301090	    -13.57274450	     38.84226011	     -7.49813505	      0.67792533	     20.06111557	     14.36890277	     -7.50036238	    -25.10244597	     -1.13503548	     -5.91723697	      1.26321685	    -11.11399051	    -16.35644802	     42.77076099	     90.00000001	      0.00000000	      0.00000000	     17.36835785	    -12.77798750	     31.47909005	     49.21156803	     90.00000001	      0.00000000	      0.00000000
      5.01000000	      4.65040261	      4.34337044	      1.83405252	      0.48744566	      0.85917359	     -0.18785907	     22.58783526	    -10.19184595	     -6.08621834	     72.51704712	     -5.23686807	      1.26566124	      7.36888513	     -1.37398666	     -7.50035674	     15.11089306	      9.07763181	    -13.52307346	     38.84116885	     -7.38059155	      0.67790628	     20.03769176	     14.31740097	     -7.50035674	    -25.20211122	     -1.04958432	     -5.95907488	      1.18000129	    -11.22146755	    -16.31888907	     42.92148705	     90.00000001	      0.00000000	      0.00000000	     17.39634824	    -12.80095668	     31.34828250	     49.29504587	     90.00000001	      0.00000000	      0.00000000
      5.02000000	      4.67211724	      4.47872239	      2.04324256	      0.49079224	      0.85917324	     -0.18829520	     23.62992027	    -10.55412992	     -8.42168172	     71.64888537	     -7.39687890	      1.25050896	      8.46262900	     -1.40089559	     -7.50034906	     14.70843033	      9.30294037	    -13.24197339	     38.62362197	     -7.36259751	      0.67410937	     20.49849002	     14.50440121	     -7.50034906	    -25.30637291	     -1.06953494	     -6.12806859	      0.90384406	    -11.30022492	    -16.24550692	     43.01929247	     90.00000001	      0.00000000	      0.00000000	     17.42494636	    -12.67054150	     31.22122236	     49.07827552	     90.00000001	      0.00000000	      0.00000000
      5.03000000	      4.83404702	      4.46314456	      2.30967352	      0.49428999	      0.85949587	     -0.18878590	     24.30689122	    -10.88213181	    -11.17774077	     70.23124011	     -9.58524072	      1.22576638	      8.96892743	      0.28793545	     -7.50033405	     14.19292634	      9.24997409	    -12.96669163	     38.59805144	     -7.15928578	      0.67366308	     20.72447623	     14.78629127	     -7.50033405	    -25.51511139	     -0.83969780	     -6.27381514	      0.73756441	    -11.38897011	    -16.05935877	     43.29085592	     90.00000001	      0.00000000	      0.00000000	     17.49374505	    -12.58279303	     30.90613286	     48.85176217	     90.00000001	      0.00000000	      0.00000000
      5.04000000	      4.72128959	      4.58300510	      2.41872900	      0.49734996	      0.85952745	     -0.18916429	     25.25468264	    -11.15975132	    -11.26134465	     68.86495609	     -9.57936873	      1.20192022	      9.13032850	      0.44547469	     -7.50032847	     14.05135740	      9.36352683	    -12.92679337	     38.56946287	     -7.06083796	      0.67316412	     20.65998565	     14.70692868	     -7.50032847	    -25.51232106	     -0.81433191	     -6.28995361	      0.64948790	    -11.50926161	    -16.02194645	     43.44258335	     90.00000001	      0.00000000	      0.00000000	     17.46103749	    -12.57660700	     30.77635662	     48.98875358	     90.00000001	      0.00000000	      0.00000000
      5.05000000	      4.88452285	      4.67497038	      2.67036779	      0.50093894	      0.85994921	     -0.18956162	     25.79846309	    -11.55945659	    -13.67559867	     67.14300245	    -11.34737500	      1.17186646	     10.15856054	      1.49110402	     -7.50031970	     13.36318078	      9.53634236	    -12.48936473	     38.17172791	     -6.96133755	      0.66622233	     21.11299682	     14.99631258	     -7.50031970	    -25.71332937	     -0.72072420	     -6.42249457	      0.48136390	    -11.60122216	    -15.93082189	     43.47845467	     90.00000001	      0.00000000	      0.00000000	     17.44668654	    -12.46869531	     30.59477808	     48.85823692	     90.00000001	      0.00000000	      0.00000000
      5.06000000	      4.72733384	      4.76403411	      2.81330824	      0.50408667	      0.85993460	     -0.18979868	     26.63297029	    -11.86102843	    -13.86750558	     65.46308927	    -11.12086909	      1.14254645	     10.22393119	      1.79983066	     -7.50031390	     13.26368605	      9.59220024	    -12.45693784	     38.16122879	     -6.85873985	      0.66603909	     21.02145222	     14.91952279	     -7.50031390	    -25.64831565	     -0.70006104	     -6.46740112	      0.37220345	    -11.68399464	    -15.88440230	     43.63754652	     90.00000001	      0.00000000	      0.00000000	     17.41250565	    -12.45982253	     30.45646745	     49.01205279	     90.00000001	      0.00000000	      0.00000000
      5.07000000	      5.05790143	      4.72646449	      3.19606306	      0.50791329	      0.86066532	     -0.19006414	     26.69828524	    -12.23135358	    -17.16041086	     63.08558627	    -13.14808136	      1.10105119	     11.24577871	      5.51044319	     -7.50029990	     12.38456099	      9.52985736	    -12.02055234	     37.82712104	     -6.72396783	      0.66020781	     21.52033974	     15.56741139	     -7.50029990	    -26.01407457	     -0.43959500	     -6.64951668	      0.25713928	    -11.76254716	    -15.76918231	     43.67174452	     90.00000001	      0.00000000	      0.00000000	     17.40541632	    -12.35357594	     30.19233559	     48.89930564	     90.00000001	      0.00000000	      0.00000000
      5.08000000	      5.07198161	      4.82052332	      3.43694904	      0.51135964	      0.86092697	     -0.19032615	     27.11286503	    -12.63053946	    -18.34450623	     60.90860320	    -13.45854838	      1.06305567	     12.26605548	      8.54069523	     -7.50028378	     11.97018691	      9.63538609	    -12.00924243	     37.55321043	     -6.79868136	      0.65542717	     21.68223284	     16.03704715	     -7.50028378	    -26.10182296	     -0.35145035	     -6.70202185	      0.15061455	    -11.86726252	    -15.71599440	     43.75471095	     90.00000001	      0.00000000	      0.00000000	     17.29112815	    -12.30289526	     30.03589910	     49.02451342	     90.00000001	      0.00000000	      0.00000000
